<svg width="600" height="263" viewBox="0 0 600 263" fill="none" xmlns="http://www.w3.org/2000/svg">
<g clip-path="url(#clip0)">
<path d="M282.555 163.731C282.555 157.088 280.163 152.481 272.722 152.481C266.167 152.481 262.27 156.025 262.27 162.757C262.27 180.562 292.166 169.932 292.166 193.052C292.166 207.668 281.448 211.876 272.501 211.876C257.708 211.876 253.367 204.258 253.367 190.838H261.118C261.118 197.924 261.561 205.542 272.988 205.542C274.459 205.59 275.923 205.332 277.289 204.786C278.655 204.239 279.893 203.416 280.925 202.367C281.957 201.319 282.76 200.068 283.285 198.693C283.809 197.319 284.043 195.85 283.972 194.381C283.972 176.487 254.076 186.851 254.076 163.643C254.076 157.796 256.556 146.192 272.589 146.192C284.637 146.192 290.129 152.216 290.306 163.82L282.555 163.731Z" fill="black"/>
<path d="M313.027 175.247H316.925C323.568 175.247 326.492 170.464 326.492 164.174C326.492 158.417 324.366 153.722 318.342 153.722C310.104 153.722 309.307 161.34 309.307 165.902H301.556C301.556 155.183 306.605 147.831 318.165 147.831C331.275 147.831 334.287 157.132 334.287 164.13C334.287 170.419 331.098 176 324.543 177.595V177.772C331.629 179.189 336.147 183.707 336.147 192.388C336.147 203.815 330.389 211.787 318.342 211.787C301.511 211.787 300.537 197.083 300.537 194.337V193.539H308.288C308.288 199.297 311.123 205.941 318.254 205.941C322.86 205.941 328.219 203.638 328.219 193.008C328.219 185.656 324.676 181.049 316.881 181.049H312.894L313.027 175.247Z" fill="black"/>
<path d="M65.6178 24.9453C78.2851 18.6227 90.9081 12.2227 103.62 5.99976C103.73 27.038 103.62 48.1648 103.62 69.2474C91.2402 71.9934 79.0159 75.4482 66.6365 78.1831L68.3417 79.2904L65.7507 78.9914C65.4628 73.1118 65.7507 67.2211 65.5957 61.3414C65.5957 49.1835 65.6178 37.0589 65.6178 24.9453V24.9453Z" fill="#8C3223"/>
<path d="M103.619 5.99976C116.294 12.3481 128.976 18.6855 141.665 25.0117V61.2972C141.599 66.9221 141.665 72.5582 141.665 78.1831L140.846 78.4046C128.477 75.2931 116.12 72.0931 103.686 69.2474C103.608 48.1648 103.73 27.038 103.619 5.99976V5.99976Z" fill="#E15343"/>
<path d="M0 57.7208C5.62496 54.9748 11.1724 52.0516 16.8417 49.3719C16.7974 103.828 16.7974 158.284 16.8417 212.74C11.1724 210.137 5.66926 207.203 0.0442911 204.457C0.0147637 155.567 0 106.655 0 57.7208Z" fill="#8C3223"/>
<path d="M16.8418 49.3719C33.0634 53.5242 49.3957 57.2115 65.6284 61.3638C65.7392 67.2434 65.4955 73.1341 65.7834 79.0138L68.3745 79.3127C80.1337 81.2172 91.7712 83.7418 103.542 85.5245C103.674 90.2748 103.652 95.0139 103.542 99.7641C90.9408 101.226 78.2846 102.765 65.6506 104.548C65.6506 122.364 65.717 140.191 65.6506 158.007C78.2514 159.967 90.9408 161.329 103.586 162.923C103.841 167.607 103.674 172.302 103.663 176.997C90.974 179.134 78.3289 181.514 65.6949 183.928V200.858C49.3736 204.922 33.0634 208.632 16.8086 212.728C16.8676 158.28 16.8787 103.828 16.8418 49.3719V49.3719Z" fill="#E15343"/>
<path d="M141.643 61.2973C157.92 57.2557 174.231 53.3581 190.53 49.4272C190.471 102.318 190.471 155.209 190.53 208.1C190.53 209.606 190.375 211.112 190.242 212.618C174.031 208.775 157.854 204.867 141.655 200.892C141.588 195.245 141.655 189.586 141.655 183.928C128.998 181.514 116.32 179.134 103.609 176.974C103.609 172.28 103.786 167.585 103.531 162.901C90.8859 161.34 78.1965 159.945 65.5957 157.985C65.7175 140.169 65.5957 122.341 65.5957 104.525C78.2851 102.765 90.9413 101.226 103.597 99.7087C103.653 94.9585 103.675 90.2193 103.597 85.4691C114.238 83.9521 124.757 81.5715 135.398 79.9327C137.27 79.6274 139.104 79.1225 140.868 78.4268L141.688 78.2054C141.61 72.5472 141.577 66.9001 141.643 61.2973V61.2973Z" fill="#8C3223"/>
<path d="M190.54 49.4272C196.076 52.2729 201.746 54.9636 207.315 57.8536C207.263 106.714 207.263 155.574 207.315 204.435C201.624 207.303 195.866 210.06 190.219 213.038V212.629C190.352 211.123 190.462 209.617 190.507 208.111C190.514 155.213 190.525 102.318 190.54 49.4272V49.4272Z" fill="#E15343"/>
<path d="M66.6699 78.1832C79.0603 75.4482 91.2736 71.9935 103.653 69.2474C116.088 72.0931 128.445 75.2932 140.813 78.4046C139.049 79.1003 137.215 79.6052 135.343 79.9105C124.713 81.5714 114.194 83.9521 103.542 85.4469C91.7608 83.6753 80.1233 81.1396 68.3751 79.2351C67.8104 78.914 67.2346 78.5596 66.6699 78.1832Z" fill="#5E1F19"/>
<path d="M103.742 99.7308C116.365 101.303 129.01 102.809 141.622 104.547V157.996C128.976 159.834 116.287 161.428 103.598 162.846C103.775 141.796 103.498 120.758 103.742 99.7308Z" fill="#E15343"/>
<path d="M65.6484 183.906C78.2714 181.492 90.9276 179.112 103.617 176.974C116.317 179.134 128.996 181.514 141.663 183.928C128.985 187.051 116.34 190.384 103.606 193.307C90.9165 190.284 78.2825 187.095 65.6484 183.906V183.906Z" fill="#F2B0A9"/>
<path d="M65.6166 200.88C65.6719 195.233 65.6166 189.597 65.6166 183.95C78.2506 187.128 90.8957 190.328 103.563 193.351C103.696 214.389 103.618 235.494 103.563 256.554C90.8403 250.342 78.2174 243.931 65.5391 237.609C65.5907 225.348 65.6166 213.105 65.6166 200.88Z" fill="#8C3223"/>
<path d="M103.598 193.318C116.331 190.395 128.976 187.062 141.655 183.939C141.599 189.586 141.577 195.244 141.655 200.903C141.71 213.083 141.655 225.263 141.655 237.52C128.973 243.846 116.298 250.184 103.631 256.532C103.653 235.45 103.731 214.378 103.598 193.318Z" fill="#E15343"/>
<path d="M278.359 64.3864C268.128 64.3864 256.822 68.3505 254.353 81.3056C254.298 81.5444 254.292 81.7917 254.334 82.033C254.377 82.2743 254.467 82.5045 254.6 82.7101C254.734 82.9157 254.907 83.0924 255.11 83.2296C255.313 83.3669 255.541 83.4619 255.782 83.5091H255.959L266.456 84.7714C266.937 84.6314 267.36 84.3406 267.663 83.9419C267.966 83.5432 268.133 83.0576 268.139 82.5569C268.536 80.5917 269.637 78.8394 271.236 77.63C272.835 76.4206 274.821 75.8376 276.82 75.9907C277.971 75.9399 279.117 76.1669 280.162 76.6526C281.206 77.1383 282.118 77.8683 282.821 78.781C284.045 81.2525 284.533 84.0236 284.228 86.7645V88.2925C277.314 88.5843 270.477 89.8555 263.92 92.0684C260.41 93.5573 257.435 96.077 255.389 99.294C253.342 102.511 252.321 106.274 252.46 110.084C252.46 121.577 259.635 127.302 268.537 127.302C271.928 127.506 275.317 126.887 278.415 125.497C281.514 124.106 284.23 121.987 286.331 119.318C287.888 122.049 289.921 124.479 292.333 126.494C292.733 126.709 293.191 126.796 293.642 126.742C294.094 126.689 294.518 126.498 294.857 126.195C297.072 124.213 300.859 120.658 303.107 118.787C303.504 118.388 303.726 117.849 303.726 117.287C303.726 116.724 303.504 116.185 303.107 115.786C300.497 113.022 299.019 109.379 298.965 105.577V88.9016C298.965 81.7264 299.563 74.8945 294.348 69.8453C289.856 66.1483 284.174 64.2085 278.359 64.3864V64.3864ZM419.371 64.3864C409.139 64.3864 397.834 68.3505 395.365 81.3056C395.308 81.542 395.298 81.7875 395.337 82.0276C395.376 82.2677 395.462 82.4977 395.591 82.7039C395.72 82.9102 395.889 83.0887 396.088 83.2288C396.287 83.369 396.511 83.4681 396.749 83.5202H396.926L407.478 84.7603C407.986 84.6472 408.441 84.3679 408.772 83.9668C409.103 83.5657 409.291 83.0656 409.305 82.5458C409.702 80.5827 410.802 78.832 412.399 77.6228C413.995 76.4137 415.978 75.8293 417.975 75.9796C419.126 75.9288 420.273 76.1558 421.317 76.6415C422.362 77.1272 423.274 77.8573 423.977 78.77C425.138 81.2637 425.561 84.038 425.195 86.7645V88.2925C418.328 88.5853 411.539 89.8567 405.031 92.0684C401.521 93.5573 398.546 96.077 396.5 99.294C394.453 102.511 393.432 106.274 393.571 110.084C393.571 121.577 400.746 127.302 409.649 127.302C413.033 127.501 416.416 126.879 419.508 125.489C422.601 124.099 425.311 121.982 427.409 119.318C428.964 122.05 430.997 124.48 433.411 126.494C433.811 126.709 434.269 126.796 434.72 126.742C435.172 126.689 435.596 126.498 435.936 126.195C438.15 124.213 441.937 120.658 444.185 118.787C444.561 118.378 444.77 117.842 444.77 117.287C444.77 116.731 444.561 116.195 444.185 115.786C441.609 113.011 440.164 109.374 440.132 105.588V88.9016C440.132 81.7264 440.608 74.8945 435.393 69.8453C430.906 66.1161 425.201 64.1725 419.371 64.3864V64.3864ZM340.045 64.9512C336.862 64.8804 333.746 65.8669 331.183 67.7563C328.621 69.6456 326.757 72.3312 325.883 75.3928V68.0072C325.849 67.4927 325.63 67.008 325.265 66.6433C324.901 66.2787 324.416 66.059 323.901 66.0252H313.936C313.391 66.0392 312.872 66.2619 312.487 66.6472C312.102 67.0325 311.879 67.5511 311.865 68.0958V124.766C311.916 125.275 312.141 125.75 312.503 126.111C312.864 126.472 313.339 126.697 313.847 126.748H324.621C325.166 126.734 325.684 126.512 326.07 126.126C326.455 125.741 326.678 125.222 326.692 124.678V94.6815C326.692 88.1154 326.359 79.1797 334.099 79.1797C341.839 79.1797 340.665 88.4254 340.665 94.6815V124.689C340.697 125.213 340.913 125.709 341.276 126.088C341.639 126.467 342.125 126.705 342.647 126.759H353.421C353.966 126.745 354.485 126.523 354.87 126.137C355.255 125.752 355.478 125.233 355.492 124.689V94.6815C355.244 91.0619 355.569 87.4259 356.455 83.9077C356.912 82.5773 357.749 81.4104 358.863 80.5521C359.978 79.6938 361.32 79.1819 362.722 79.08C364.193 78.8945 365.677 79.298 366.851 80.2024C368.025 81.1068 368.794 82.4387 368.99 83.9077C369.347 87.4872 369.447 91.0877 369.289 94.6815V124.689C369.32 125.213 369.536 125.709 369.899 126.088C370.262 126.467 370.748 126.705 371.271 126.759H382.011C382.556 126.745 383.074 126.523 383.46 126.137C383.845 125.752 384.068 125.233 384.082 124.689V88.7133C384.082 82.7119 384.68 75.725 381.291 70.9194C379.552 68.7416 377.265 67.0662 374.663 66.0657C372.062 65.0652 369.242 64.7755 366.491 65.2266C363.741 65.6776 361.161 66.853 359.015 68.632C356.87 70.411 355.237 72.7293 354.285 75.3485C350.963 68.273 346.755 64.9954 340.034 64.9954L340.045 64.9512ZM523.266 64.9512C507.765 64.9512 499.05 78.6371 499.05 96.276C499.05 113.915 507.598 127.9 523.266 127.9C538.27 127.9 547.87 114.125 547.87 96.8186C547.87 79.0025 539.145 64.9512 523.056 64.9512H523.266ZM584.709 64.9512C577.268 64.9512 573.039 68.5498 570.005 76.4115V67.7747C569.887 67.3404 569.631 66.9564 569.275 66.6807C568.919 66.405 568.484 66.2526 568.034 66.2467H558.068C557.557 66.2356 557.06 66.4174 556.676 66.7559C556.292 67.0944 556.05 67.5648 555.997 68.0737V124.689C556.029 125.213 556.245 125.709 556.608 126.088C556.971 126.467 557.457 126.705 557.98 126.759H568.753C569.298 126.745 569.817 126.523 570.202 126.137C570.587 125.752 570.81 125.233 570.824 124.689V94.2054C570.669 90.5256 571.291 86.8544 572.651 83.4316C573.086 82.2013 573.861 81.1196 574.886 80.3122C575.911 79.5047 577.144 79.0044 578.442 78.8696C585.883 78.8696 585.163 87.8718 585.163 94.1057V124.888C585.231 125.375 585.466 125.823 585.828 126.156C586.189 126.489 586.655 126.687 587.145 126.715H597.93C598.436 126.707 598.923 126.518 599.302 126.183C599.682 125.849 599.93 125.389 600.001 124.888V89.2891C600.001 83.7527 600.001 76.1789 597.21 71.6502C595.899 69.5166 594.044 67.7699 591.836 66.5889C589.628 65.4079 587.145 64.835 584.643 64.929L584.709 64.9512ZM455.368 65.9145C454.843 65.9145 454.338 66.1233 453.967 66.495C453.595 66.8667 453.386 67.3708 453.386 67.8965V76.0239C453.362 76.5443 453.544 77.0532 453.892 77.4407C454.24 77.8282 454.726 78.0631 455.246 78.0945H473.815L452.777 109.264C451.766 110.932 451.248 112.851 451.282 114.801V123.05C451.267 123.359 451.33 123.667 451.464 123.946C451.598 124.225 451.799 124.466 452.05 124.647C452.3 124.829 452.592 124.945 452.899 124.985C453.206 125.025 453.518 124.988 453.807 124.877C459.556 121.818 465.969 120.218 472.481 120.218C478.994 120.218 485.406 121.818 491.155 124.877C491.454 125 491.779 125.047 492.1 125.013C492.422 124.98 492.73 124.867 492.997 124.684C493.264 124.502 493.481 124.256 493.629 123.969C493.778 123.682 493.852 123.362 493.846 123.039V114.513C493.808 113.883 493.605 113.274 493.257 112.747C492.909 112.22 492.429 111.795 491.864 111.512C485.685 108.181 478.711 106.607 471.701 106.961L490.037 79.9548C491.353 78.5337 492.283 76.7992 492.739 74.9166V68.0072C492.763 67.4869 492.581 66.9779 492.233 66.5904C491.885 66.203 491.399 65.9681 490.879 65.9366H455.446L455.368 65.9145ZM523.233 76.6883C524.883 76.5846 526.515 77.0796 527.829 78.0825C529.143 79.0853 530.051 80.5285 530.386 82.1472C531.601 87.0513 532.115 92.1025 531.914 97.1508C531.914 104.326 531.549 116.44 523.244 116.44C514.94 116.44 514.884 101.436 514.884 94.5819C514.884 87.7278 515.25 76.5776 523.045 76.5776L523.233 76.6883ZM284.061 97.2393V99.6089C284.473 103.618 283.788 107.663 282.079 111.313C281.417 112.745 280.378 113.971 279.074 114.858C277.769 115.746 276.247 116.262 274.672 116.351C270.531 116.351 268.106 113.029 268.106 108.224C267.984 98.9224 276.355 97.2726 284.095 97.2726L284.061 97.2393ZM425.073 97.2393V99.6089C425.496 103.636 424.81 107.702 423.091 111.368C422.432 112.803 421.394 114.03 420.088 114.918C418.783 115.806 417.26 116.321 415.683 116.406C411.542 116.406 409.117 113.084 409.117 108.279C409.117 98.8892 417.278 97.2061 425.018 97.2061L425.073 97.2393Z" fill="#201C1D"/>
</g>
<defs>
<clipPath id="clip0">
<rect width="600" height="250.555" fill="white" transform="translate(0 6)"/>
</clipPath>
</defs>
</svg>
